<?xml version="1.0" standalone="no"?>
<!DOCTYPE svg PUBLIC "-//W3C//DTD SVG 20010904//EN"
 "http://www.w3.org/TR/2001/REC-SVG-20010904/DTD/svg10.dtd">
<svg version="1.0" xmlns="http://www.w3.org/2000/svg"
 width="1143.000000pt" height="1143.000000pt" viewBox="0 0 1143.000000 1143.000000"
 preserveAspectRatio="xMidYMid meet">
<metadata>
Created by potrace 1.11, written by Peter Selinger 2001-2013
</metadata>
<g transform="translate(0.000000,1143.000000) scale(0.100000,-0.100000)"
fill="#000000" stroke="none">
<path d="M0 5715 l0 -4285 5715 0 5715 0 0 4285 0 4285 -5715 0 -5715 0 0
-4285z m3632 3404 c89 -12 165 -23 168 -26 5 -5 -51 -53 -62 -53 -12 0 -170
-110 -243 -170 -112 -92 -255 -258 -255 -297 0 -7 -3 -13 -7 -13 -11 0 -33
-50 -33 -72 0 -10 -4 -18 -9 -18 -12 0 -31 -84 -33 -150 -2 -59 10 -179 20
-195 4 -5 7 -16 8 -23 3 -20 74 -162 98 -197 88 -128 276 -313 399 -392 23
-15 67 -46 97 -68 61 -44 88 -61 172 -105 31 -16 59 -34 63 -40 3 -5 15 -10
26 -10 10 0 19 -4 19 -9 0 -5 17 -16 38 -24 21 -9 90 -40 154 -71 64 -31 127
-56 142 -56 14 0 26 -4 26 -9 0 -5 15 -13 33 -16 38 -8 235 -88 292 -118 295
-157 472 -293 645 -497 101 -119 221 -319 270 -450 7 -19 30 -71 50 -115 21
-44 45 -105 54 -136 18 -65 26 -163 14 -181 -5 -8 -8 -9 -8 -2 0 41 -34 194
-56 256 -31 87 -93 209 -138 272 -17 24 -63 67 -101 95 -111 79 -125 92 -125
108 0 11 -6 14 -26 9 -18 -5 -24 -3 -19 5 4 6 19 9 36 5 17 -3 33 0 42 8 9 10
19 11 30 4 13 -7 17 -5 17 7 0 8 -7 15 -16 15 -10 0 -14 6 -11 14 3 8 -6 30
-21 48 -15 19 -34 42 -42 53 -41 51 -212 217 -265 256 -182 134 -310 203 -555
299 -58 22 -113 45 -122 50 -10 6 -24 10 -32 10 -20 0 -290 129 -390 186 -83
47 -194 118 -310 198 -76 52 -227 187 -304 272 -164 181 -250 406 -223 584 23
148 100 286 244 435 48 50 87 93 87 97 0 9 -65 19 -345 53 -196 24 -204 29
-139 75 19 14 42 31 50 38 11 11 48 25 94 37 17 4 127 28 137 29 7 1 15 4 18
7 13 14 201 8 347 -12z m4328 -585 c69 -8 132 -19 140 -23 9 -5 31 -12 50 -16
82 -18 230 -108 321 -196 207 -200 298 -459 299 -851 0 -154 -13 -248 -49
-356 -26 -77 -82 -193 -101 -212 -3 -3 -21 -25 -40 -50 -50 -66 -134 -144
-225 -208 -44 -32 -82 -57 -85 -56 -3 1 -21 -9 -40 -20 -35 -22 -152 -76 -164
-76 -3 0 -25 -9 -49 -20 -23 -10 -85 -31 -137 -45 -96 -27 -111 -31 -164 -41
-16 -2 -33 -7 -38 -10 -12 -8 -133 -29 -228 -40 -30 -3 -66 -7 -80 -9 -42 -5
-161 -15 -235 -20 -38 -2 -70 -5 -70 -5 0 -2 -151 -3 -300 -2 -187 1 -207 -1
-360 -33 -60 -13 -172 -60 -245 -104 -87 -52 -210 -170 -229 -221 -7 -19 -19
-46 -26 -60 -11 -22 -26 -75 -30 -105 -1 -5 -7 -23 -13 -39 -15 -35 -52 -273
-52 -333 0 -62 -16 -61 -23 2 -14 139 45 393 124 534 39 69 163 250 240 351
108 141 312 334 407 385 20 11 39 23 42 26 14 16 202 99 300 133 36 12 101 30
145 40 44 10 96 22 115 26 19 5 60 14 90 20 214 48 526 188 695 312 84 62 215
192 215 213 0 8 4 15 8 15 11 0 69 125 82 177 15 58 15 234 1 260 -6 12 -11
30 -11 40 0 51 -105 249 -189 357 -25 32 -56 72 -68 89 -12 16 -57 65 -99 109
-42 43 -70 78 -63 78 8 0 70 -7 139 -16z m-2010 -467 c177 -62 316 -219 466
-527 31 -63 63 -127 70 -142 8 -14 14 -31 14 -38 0 -7 6 -26 14 -43 8 -18 25
-61 37 -97 12 -36 25 -69 29 -75 4 -5 16 -41 28 -80 11 -38 35 -117 52 -175
17 -58 34 -113 36 -122 3 -10 1 -18 -4 -18 -6 0 -13 12 -17 27 -33 134 -229
520 -307 604 -13 14 -35 41 -49 60 -74 96 -197 192 -288 225 -25 9 -56 21 -68
26 -40 19 -201 4 -271 -26 -128 -54 -262 -163 -378 -308 -32 -40 -63 -77 -69
-83 -5 -5 -33 -44 -60 -85 -28 -41 -53 -77 -56 -80 -3 -3 -9 -12 -13 -20 -4
-8 -12 -24 -19 -35 -7 -11 -27 -46 -46 -78 -18 -32 -35 -56 -38 -54 -5 6 93
204 112 227 6 8 23 35 36 60 13 25 26 47 29 50 3 3 14 32 23 65 18 61 175 387
189 393 4 2 8 10 8 18 0 8 4 14 9 14 5 0 12 9 16 19 3 11 22 37 41 58 19 21
45 49 58 63 73 81 170 144 261 171 72 21 109 23 155 6z m-572 -782 c17 -14 35
-25 41 -25 6 0 11 -4 11 -9 0 -10 157 -101 174 -101 6 0 21 -6 32 -14 41 -29
185 -57 289 -57 55 0 118 2 140 5 73 8 270 81 307 113 34 30 25 -5 -13 -45
-21 -24 -39 -46 -39 -50 0 -4 -12 -18 -26 -32 -15 -13 -38 -40 -53 -59 -14
-19 -37 -46 -50 -60 -13 -15 -68 -78 -122 -142 l-98 -116 77 13 c42 7 91 17
107 22 49 16 147 62 178 84 15 11 31 18 34 15 4 -5 -159 -207 -214 -265 -7 -7
-29 -34 -50 -60 -21 -26 -46 -56 -56 -67 -10 -11 -33 -38 -50 -59 -18 -22 -39
-46 -47 -55 -37 -40 -135 -166 -145 -184 -17 -34 -30 -29 -31 10 -1 26 -18 66
-51 123 -74 128 -173 316 -173 329 0 6 12 11 26 11 22 0 25 3 20 23 -3 12 -6
30 -6 40 0 9 -4 17 -10 17 -5 0 -6 -8 -3 -17 5 -13 -1 -11 -19 7 -16 15 -22
27 -16 31 12 8 5 13 -44 28 -39 13 -180 148 -186 179 -4 16 -3 16 10 1 24 -31
152 -112 238 -152 47 -21 88 -44 91 -49 13 -20 41 0 34 23 -17 52 -268 468
-316 522 -44 51 -39 63 9 22z m171 -646 c-15 -9 -32 -2 -24 11 3 5 13 6 21 3
12 -4 13 -8 3 -14z m-2279 -189 c8 -5 11 -10 5 -10 -5 0 -17 5 -25 10 -8 5
-10 10 -5 10 6 0 17 -5 25 -10z m45 -20 c3 -5 2 -10 -4 -10 -5 0 -13 5 -16 10
-3 6 -2 10 4 10 5 0 13 -4 16 -10z m55 -20 c8 -5 11 -10 5 -10 -5 0 -17 5 -25
10 -8 5 -10 10 -5 10 6 0 17 -5 25 -10z m100 -40 c0 -5 -2 -10 -4 -10 -3 0 -8
5 -11 10 -3 6 -1 10 4 10 6 0 11 -4 11 -10z m81 -35 c19 -8 27 -14 19 -14 -18
0 -79 27 -64 28 7 1 27 -6 45 -14z m64 -25 c3 -5 2 -10 -4 -10 -5 0 -13 5 -16
10 -3 6 -2 10 4 10 5 0 13 -4 16 -10z m51 -27 c-6 -6 -36 9 -36 18 0 5 9 4 20
-3 10 -7 18 -14 16 -15z m119 -33 c13 -5 14 -9 5 -9 -8 0 -24 4 -35 9 -13 5
-14 9 -5 9 8 0 24 -4 35 -9z m50 -20 c3 -5 2 -10 -4 -10 -5 0 -13 5 -16 10 -3
6 -2 10 4 10 5 0 13 -4 16 -10z m95 -30 c0 -5 -4 -10 -10 -10 -5 0 -10 5 -10
10 0 6 5 10 10 10 6 0 10 -4 10 -10z m37 -16 c-3 -3 -12 -4 -19 -1 -8 3 -5 6
6 6 11 1 17 -2 13 -5z m4257 -16 c-16 -54 -104 -195 -175 -283 -134 -167 -256
-245 -468 -302 -90 -24 -431 -12 -465 16 -6 5 -29 12 -51 16 -22 4 -47 13 -55
21 -8 7 -60 32 -115 55 -55 23 -111 50 -125 59 -57 39 -107 57 -165 59 -33 1
-64 6 -69 11 -6 6 -28 10 -50 10 -23 0 -36 -4 -29 -8 6 -4 -28 -7 -75 -8 -99
0 -162 -6 -162 -15 0 -3 -14 -6 -30 -7 -17 0 -40 -4 -52 -7 l-21 -7 21 28 c64
89 215 193 286 197 19 2 37 5 40 8 16 15 346 -11 370 -30 6 -4 41 -18 78 -30
55 -17 93 -21 201 -22 73 0 139 2 147 5 8 3 38 8 65 11 28 3 82 12 120 21 39
9 90 20 115 24 49 8 213 51 300 79 30 10 82 26 115 35 68 20 121 39 180 66 57
27 78 26 69 -2z m-4199 2 c13 -5 14 -9 5 -9 -8 0 -24 4 -35 9 -13 5 -14 9 -5
9 8 0 24 -4 35 -9z m65 -20 c0 -5 -4 -10 -9 -10 -6 0 -13 5 -16 10 -3 6 1 10
9 10 9 0 16 -4 16 -10z m40 -10 c0 -5 -4 -10 -9 -10 -6 0 -13 5 -16 10 -3 6 1
10 9 10 9 0 16 -4 16 -10z m47 -16 c-3 -3 -12 -4 -19 -1 -8 3 -5 6 6 6 11 1
17 -2 13 -5z m113 -19 c67 -9 93 -15 88 -21 -8 -7 -151 17 -168 28 -11 7 -9 8
10 4 14 -3 45 -8 70 -11z m780 -5 c13 -9 13 -10 0 -9 -8 1 -26 5 -40 9 l-25 8
25 1 c14 0 32 -4 40 -9z m70 -8 c0 -4 22 -13 49 -19 70 -17 158 -60 203 -101
47 -43 98 -116 98 -143 0 -26 -14 -24 -34 6 -17 26 -87 65 -117 65 -26 0 -69
22 -63 31 3 5 0 9 -5 9 -6 0 -11 20 -11 43 0 41 -2 45 -37 60 -21 9 -55 21
-75 27 -38 11 -52 30 -23 30 8 0 15 -3 15 -8z m-597 -19 c-7 -2 -19 -2 -25 0
-7 3 -2 5 12 5 14 0 19 -2 13 -5z m364 -179 c-9 -9 -116 -54 -142 -60 -11 -3
5 7 35 21 30 13 62 29 70 34 17 11 47 14 37 5z m-177 -74 c-8 -5 -22 -10 -30
-10 -13 0 -13 1 0 10 8 5 22 10 30 10 13 0 13 -1 0 -10z m-51 -15 c-8 -8 -193
-54 -198 -49 -8 7 2 11 84 31 81 20 122 27 114 18z m652 -39 c54 -6 159 -43
159 -57 0 -5 -15 -9 -32 -9 -18 0 -46 -7 -62 -15 -15 -8 -32 -15 -37 -15 -16
0 -119 -67 -170 -111 -28 -24 -72 -70 -96 -102 -57 -74 -150 -165 -228 -223
-69 -52 -203 -126 -218 -121 -5 1 28 23 74 47 128 69 254 180 348 306 25 32
68 82 96 109 50 48 79 105 54 105 -14 0 -4 61 12 71 8 4 5 11 -7 18 -16 9 -12
10 21 6 22 -2 61 -6 86 -9z m-886 -16 c-27 -12 -35 -12 -35 0 0 6 12 10 28 9
24 0 25 -1 7 -9z m-60 -10 c-3 -5 -11 -10 -16 -10 -6 0 -7 5 -4 10 3 6 11 10
16 10 6 0 7 -4 4 -10z m-60 -10 c3 -5 1 -10 -4 -10 -6 0 -11 5 -11 10 0 6 2
10 4 10 3 0 8 -4 11 -10z m2119 -30 c43 -11 95 -29 117 -40 21 -11 58 -30 82
-41 49 -25 237 -148 252 -164 6 -7 31 -29 58 -50 26 -20 47 -42 47 -49 0 -22
52 -122 90 -173 52 -67 124 -103 209 -103 34 0 61 -3 61 -7 0 -12 -58 -42
-125 -66 -46 -16 -83 -21 -165 -21 -102 1 -107 2 -173 37 -189 102 -310 216
-429 404 -70 112 -243 246 -313 245 l-30 -1 24 20 c12 10 27 17 31 14 5 -3 11
-1 15 5 11 17 166 11 249 -10z m-1849 -604 c-40 -18 -92 -30 -82 -19 10 10 76
31 97 31 8 0 2 -5 -15 -12z m702 -109 c-18 -34 -35 -64 -38 -67 -3 -3 -12 -22
-20 -42 -7 -21 -17 -38 -21 -38 -4 0 -8 -7 -8 -15 0 -8 -4 -23 -10 -33 -26
-47 -86 -185 -121 -280 -22 -59 -44 -116 -48 -127 -22 -50 -71 -204 -71 -223
0 -12 -4 -22 -10 -22 -5 0 -10 -13 -10 -29 0 -16 -7 -47 -15 -70 -34 -97 -94
-457 -98 -588 0 -7 -5 -13 -10 -13 -21 0 21 339 63 510 12 47 26 105 32 130
13 58 86 286 133 415 51 139 51 138 22 169 -26 27 -37 65 -37 122 0 41 51 101
144 169 34 25 73 54 88 66 67 55 76 46 35 -34z m496 16 c9 -21 24 -63 33 -93
10 -30 22 -58 28 -62 6 -4 8 -8 4 -8 -3 0 2 -24 12 -52 10 -29 22 -71 25 -93
4 -22 12 -48 17 -58 5 -10 13 -39 18 -65 8 -48 30 -145 55 -242 8 -30 20 -91
26 -135 7 -44 13 -91 15 -105 52 -343 38 -736 -38 -1010 -26 -96 -59 -192 -70
-204 -4 -6 -8 -16 -8 -24 0 -37 -156 -309 -206 -359 -8 -8 -14 -23 -14 -34 0
-37 -25 -20 -26 19 0 26 -13 57 -46 107 -54 83 -108 204 -115 257 l-6 37 89 3
89 3 6 150 c23 554 33 1055 20 1036 -7 -11 -10 -11 -17 0 -11 18 -12 59 -1 59
4 0 6 4 3 9 -3 5 -14 7 -25 4 -14 -3 -20 2 -25 22 -4 14 -10 23 -15 21 -11 -7
-33 19 -24 27 3 4 -1 7 -10 7 -10 0 -17 -7 -17 -15 0 -17 -2 -18 -24 -9 -20 8
-21 24 -1 24 8 0 15 5 15 10 0 6 -6 10 -14 10 -16 0 -8 55 18 129 9 24 18 53
20 65 41 204 81 331 150 476 14 30 26 72 26 93 0 20 4 37 8 37 5 0 16 -17 25
-37z m482 -10 c73 -49 179 -140 245 -210 65 -69 130 -148 130 -157 0 -2 18
-35 40 -73 112 -196 133 -471 55 -727 -20 -65 -45 -135 -56 -154 -10 -20 -19
-40 -19 -44 0 -4 -14 -31 -31 -60 -81 -135 -99 -151 -67 -61 17 49 19 73 14
163 -4 58 -11 134 -16 170 -30 200 -43 279 -51 310 -4 19 -18 73 -29 120 -28
114 -61 213 -75 225 -13 12 -98 274 -114 356 -7 31 -27 82 -46 113 -18 31 -30
56 -27 56 4 0 25 -12 47 -27z"/>
<path d="M5803 6570 c0 -41 2 -58 4 -37 2 20 2 54 0 75 -2 20 -4 3 -4 -38z"/>
<path d="M5793 6330 c0 -30 2 -43 4 -27 2 15 2 39 0 55 -2 15 -4 2 -4 -28z"/>
<path d="M5258 5753 c6 -2 18 -2 25 0 6 3 1 5 -13 5 -14 0 -19 -2 -12 -5z"/>
</g>
</svg>
